SplineFontDB: 3.2
FontName: MEh-1.8
FullName: MEh 1.8
FamilyName: MEh
Weight: Regular
Copyright: Copyright (c) 2019, Waldemar
UComments: "2019-10-29: Created with FontForge (http://fontforge.org)"
Version: 1.8
ItalicAngle: 0
UnderlinePosition: -100
UnderlineWidth: 50
Ascent: 800
Descent: 200
InvalidEm: 0
LayerCount: 2
Layer: 0 0 "+BBcEMAQ0BD0EOAQ5 +BD8EOwQwBD0A" 1
Layer: 1 0 "+BB8ENQRABDUENAQ9BDgEOQAA +BD8EOwQwBD0A" 0
XUID: [1021 370 2045899877 19757]
StyleMap: 0x0000
FSType: 0
OS2Version: 0
OS2_WeightWidthSlopeOnly: 0
OS2_UseTypoMetrics: 1
CreationTime: 1572353847
ModificationTime: 1586373228
PfmFamily: 17
TTFWeight: 400
TTFWidth: 5
LineGap: 90
VLineGap: 0
OS2TypoAscent: 0
OS2TypoAOffset: 1
OS2TypoDescent: 0
OS2TypoDOffset: 1
OS2TypoLinegap: 90
OS2WinAscent: 0
OS2WinAOffset: 1
OS2WinDescent: 0
OS2WinDOffset: 1
HheadAscent: 0
HheadAOffset: 1
HheadDescent: 0
HheadDOffset: 1
OS2Vendor: 'PfEd'
MarkAttachClasses: 1
DEI: 91125
LangName: 1033
Encoding: ISO8859-1
UnicodeInterp: none
NameList: AGL For New Fonts
DisplaySize: -48
AntiAlias: 1
FitToEm: 0
WinInfo: 0 21 13
BeginPrivate: 0
EndPrivate
TeXData: 1 0 0 1048576 524288 349525 416643 1048576 349525 783286 444596 497025 792723 393216 433062 380633 303038 157286 324010 404750 52429 2506097 1059062 262144
BeginChars: 256 256

StartChar: F
Encoding: 70 70 0
Width: 1000
VWidth: 0
HStem: 7 138<375.255 623.717> 296 138<375.322 621.23> 573 20G<112 125 873 889>
LayerCount: 2
Fore
SplineSet
117 593 m 0
 133 593 149 584 178 561 c 0
 188 554 199 547 209 540 c 0
 279 482 409 434 500 434 c 0
 601 434 743 492 816 563 c 1
 843 583 864 593 882 593 c 0
 896 593 909 588 923 578 c 0
 943 564 960 530 960 507 c 0
 960 504 960 501 959 498 c 0
 952 471 863 402 785 363 c 0
 699 320 589 296 487 296 c 0
 446 296 406 300 369 308 c 0
 206 343 54 434 41 503 c 0
 40 507 40 512 40 516 c 0
 40 544 56 570 85 584 c 0
 97 590 107 593 117 593 c 0
117 304 m 0
 133 304 149 294 179 272 c 0
 189 264 199 257 209 250 c 0
 279 192 409 145 500 145 c 0
 602 145 743 202 816 274 c 1
 843 294 864 303 883 303 c 0
 897 303 910 299 923 289 c 0
 943 274 960 241 960 218 c 0
 960 215 960 212 959 209 c 0
 953 182 863 112 785 73 c 0
 698 30 588 7 486 7 c 0
 445 7 405 10 369 18 c 0
 206 53 54 144 41 214 c 0
 40 218 40 222 40 227 c 0
 40 255 57 282 85 296 c 0
 98 302 107 304 117 304 c 0
EndSplineSet
Validated: 1
EndChar

StartChar: f
Encoding: 102 102 1
Width: 1000
VWidth: 0
Flags: W
HStem: 7 138<375.255 623.717> 296 138<375.322 621.23> 573 20G<112 125 873 889>
LayerCount: 2
Fore
SplineSet
117 593 m 0
 133 593 149 584 178 561 c 0
 188 554 199 547 209 540 c 0
 279 482 409 434 500 434 c 0
 601 434 743 492 816 563 c 1
 843 583 864 593 882 593 c 0
 896 593 909 588 923 578 c 0
 943 564 960 530 960 507 c 0
 960 504 960 501 959 498 c 0
 952 471 863 402 785 363 c 0
 699 320 589 296 487 296 c 0
 446 296 406 300 369 308 c 0
 206 343 54 434 41 503 c 0
 40 507 40 512 40 516 c 0
 40 544 56 570 85 584 c 0
 97 590 107 593 117 593 c 0
117 304 m 0
 133 304 149 294 179 272 c 0
 189 264 199 257 209 250 c 0
 279 192 409 145 500 145 c 0
 602 145 743 202 816 274 c 1
 843 294 864 303 883 303 c 0
 897 303 910 299 923 289 c 0
 943 274 960 241 960 218 c 0
 960 215 960 212 959 209 c 0
 953 182 863 112 785 73 c 0
 698 30 588 7 486 7 c 0
 445 7 405 10 369 18 c 0
 206 53 54 144 41 214 c 0
 40 218 40 222 40 227 c 0
 40 255 57 282 85 296 c 0
 98 302 107 304 117 304 c 0
EndSplineSet
Validated: 1
EndChar

StartChar: G
Encoding: 71 71 2
Width: 1000
VWidth: 0
HStem: -114 176<409.087 568.825> 163 58<514 542.801> 274 108<518.139 607.639> 549 164<487.176 672.071>
VStem: 53 246<185.761 368.328> 425 89<219.796 268.339> 633 130<125.073 248.965>
LayerCount: 2
Fore
SplineSet
337 -101 m 0
 169 -51 53 79 53 250 c 0
 53 324 61 380 97 448 c 0
 180 608 328 713 506 713 c 0
 642 713 764 677 866 585 c 0
 894 561 948 490 948 480 c 0
 948 475 936 474 917 477 c 0
 890 480 865 489 795 520 c 0
 747 541 700 549 626 549 c 0
 551 549 538 547 509 537 c 0
 404 498 329 420 305 324 c 0
 301 309 299 293 299 277 c 0
 299 195 347 113 420 77 c 0
 441 67 466 62 491 62 c 0
 519 62 546 68 565 81 c 0
 603 106 621 131 629 163 c 0
 632 173 633 180 633 189 c 0
 633 230 608 265 569 274 c 0
 565 275 561 274 557 274 c 0
 535 274 514 259 514 242 c 0
 514 239 514 237 515 235 c 0
 518 228 524 221 528 221 c 0
 540 221 548 212 548 201 c 0
 548 197 547 192 544 187 c 0
 540 179 533 170 529 168 c 0
 524 164 517 163 509 163 c 0
 482 163 445 183 434 208 c 0
 428 224 425 240 425 255 c 0
 425 322 478 382 556 382 c 0
 613 382 648 375 689 338 c 0
 740 293 763 245 763 179 c 0
 763 74 719 -7 626 -64 c 0
 564 -102 530 -114 454 -114 c 0
 398 -114 377 -113 337 -101 c 0
EndSplineSet
Validated: 1
EndChar

StartChar: g
Encoding: 103 103 3
Width: 1000
VWidth: 0
Flags: W
HStem: -114 176<409.087 568.825> 163 58<514 542.801> 274 108<518.139 607.639> 549 164<487.176 672.071>
VStem: 53 246<185.761 368.328> 425 89<219.796 268.339> 633 130<125.073 248.965>
LayerCount: 2
Fore
SplineSet
337 -101 m 0
 169 -51 53 79 53 250 c 0
 53 324 61 380 97 448 c 0
 180 608 328 713 506 713 c 0
 642 713 764 677 866 585 c 0
 894 561 948 490 948 480 c 0
 948 475 936 474 917 477 c 0
 890 480 865 489 795 520 c 0
 747 541 700 549 626 549 c 0
 551 549 538 547 509 537 c 0
 404 498 329 420 305 324 c 0
 301 309 299 293 299 277 c 0
 299 195 347 113 420 77 c 0
 441 67 466 62 491 62 c 0
 519 62 546 68 565 81 c 0
 603 106 621 131 629 163 c 0
 632 173 633 180 633 189 c 0
 633 230 608 265 569 274 c 0
 565 275 561 274 557 274 c 0
 535 274 514 259 514 242 c 0
 514 239 514 237 515 235 c 0
 518 228 524 221 528 221 c 0
 540 221 548 212 548 201 c 0
 548 197 547 192 544 187 c 0
 540 179 533 170 529 168 c 0
 524 164 517 163 509 163 c 0
 482 163 445 183 434 208 c 0
 428 224 425 240 425 255 c 0
 425 322 478 382 556 382 c 0
 613 382 648 375 689 338 c 0
 740 293 763 245 763 179 c 0
 763 74 719 -7 626 -64 c 0
 564 -102 530 -114 454 -114 c 0
 398 -114 377 -113 337 -101 c 0
EndSplineSet
Validated: 1
EndChar

StartChar: H
Encoding: 72 72 4
Width: 1000
VWidth: 0
HStem: -106 143<407.963 553.071> 334 148<409.172 557.489>
VStem: 605 150<94.2708 277.193>
LayerCount: 2
Fore
SplineSet
272 322 m 16
 269 328 267 336 267 345 c 0
 267 374 282 413 282 413 c 1
 358 459 431 482 497 482 c 0
 542 482 583 471 620 450 c 0
 713 396 755 293 755 192 c 0
 755 130 740 69 711 19 c 0
 666 -59 588 -106 490 -106 c 0
 428 -106 358 -87 284 -44 c 1
 284 -44 277 -16 277 10 c 0
 277 23 279 36 284 44 c 8
 298 69 358 84 358 84 c 1
 416 50 460 37 493 37 c 0
 541 37 566 65 583 93 c 0
 599 120 605 153 605 185 c 0
 605 243 582 300 546 321 c 0
 534 328 517 334 495 334 c 0
 463 334 419 322 359 286 c 1
 359 286 286 297 272 322 c 16
EndSplineSet
Validated: 1
EndChar

StartChar: h
Encoding: 104 104 5
Width: 1000
VWidth: 0
Flags: W
HStem: -106 143<407.963 553.071> 334 148<409.172 557.489>
VStem: 605 150<94.2708 277.193>
LayerCount: 2
Fore
SplineSet
272 322 m 16
 269 328 267 336 267 345 c 0
 267 374 282 413 282 413 c 1
 358 459 431 482 497 482 c 0
 542 482 583 471 620 450 c 0
 713 396 755 293 755 192 c 0
 755 130 740 69 711 19 c 0
 666 -59 588 -106 490 -106 c 0
 428 -106 358 -87 284 -44 c 1
 284 -44 277 -16 277 10 c 0
 277 23 279 36 284 44 c 8
 298 69 358 84 358 84 c 1
 416 50 460 37 493 37 c 0
 541 37 566 65 583 93 c 0
 599 120 605 153 605 185 c 0
 605 243 582 300 546 321 c 0
 534 328 517 334 495 334 c 0
 463 334 419 322 359 286 c 1
 359 286 286 297 272 322 c 16
EndSplineSet
Validated: 1
EndChar

StartChar: R
Encoding: 82 82 6
Width: 1000
VWidth: 0
HStem: 578 117<422.55 575.309>
VStem: 230 139<396.511 531.461> 630 140<395.12 530.333>
LayerCount: 2
Fore
SplineSet
76 -96 m 0
 67 -93 62 -87 62 -77 c 0
 62 -68 64 -59 70 -50 c 0
 72 -47 80 -38 86 -31 c 0
 112 -6 142 17 277 113 c 0
 311 137 353 167 370 180 c 2
 403 203 l 1
 398 207 l 2
 353 245 316 282 290 315 c 0
 270 340 251 372 242 397 c 0
 234 420 230 442 230 464 c 0
 230 509 246 551 277 590 c 0
 286 601 308 623 319 632 c 0
 333 643 350 654 367 662 c 0
 398 677 413 683 466 692 c 0
 475 694 487 695 498 695 c 0
 507 695 517 694 525 693 c 0
 576 684 602 677 633 662 c 0
 651 653 659 648 675 636 c 0
 689 626 713 603 723 590 c 0
 756 549 770 504 770 458 c 0
 770 404 743 352 692 294 c 0
 673 272 634 235 606 210 c 2
 597 203 l 1
 600 202 l 2
 601 201 613 192 626 182 c 0
 649 166 678 145 775 76 c 0
 878 2 916 -28 931 -51 c 0
 936 -59 939 -67 939 -75 c 0
 939 -83 935 -91 928 -94 c 0
 923 -96 922 -97 912 -97 c 0
 899 -97 886 -93 865 -86 c 0
 802 -63 684 3 572 78 c 0
 548 94 514 118 503 125 c 2
 500 128 l 1
 479 113 l 2
 362 29 209 -59 135 -86 c 0
 115 -93 96 -97 84 -97 c 0
 81 -97 78 -97 76 -96 c 0
523 299 m 0
 540 314 567 341 579 354 c 0
 616 398 630 434 630 472 c 0
 630 488 627 497 622 509 c 0
 608 538 588 554 547 569 c 0
 534 575 520 578 505 578 c 0
 485 578 464 573 443 565 c 0
 408 552 391 538 379 513 c 0
 372 501 369 485 369 469 c 0
 369 461 370 452 372 443 c 0
 381 398 418 349 487 290 c 2
 500 279 l 1
 505 283 l 2
 508 285 516 293 523 299 c 0
EndSplineSet
Validated: 1
EndChar

StartChar: r
Encoding: 114 114 7
Width: 1000
VWidth: 0
Flags: W
HStem: 578 117<422.55 575.309>
VStem: 230 139<396.511 531.461> 630 140<395.12 530.333>
LayerCount: 2
Fore
SplineSet
76 -96 m 0
 67 -93 62 -87 62 -77 c 0
 62 -68 64 -59 70 -50 c 0
 72 -47 80 -38 86 -31 c 0
 112 -6 142 17 277 113 c 0
 311 137 353 167 370 180 c 2
 403 203 l 1
 398 207 l 2
 353 245 316 282 290 315 c 0
 270 340 251 372 242 397 c 0
 234 420 230 442 230 464 c 0
 230 509 246 551 277 590 c 0
 286 601 308 623 319 632 c 0
 333 643 350 654 367 662 c 0
 398 677 413 683 466 692 c 0
 475 694 487 695 498 695 c 0
 507 695 517 694 525 693 c 0
 576 684 602 677 633 662 c 0
 651 653 659 648 675 636 c 0
 689 626 713 603 723 590 c 0
 756 549 770 504 770 458 c 0
 770 404 743 352 692 294 c 0
 673 272 634 235 606 210 c 2
 597 203 l 1
 600 202 l 2
 601 201 613 192 626 182 c 0
 649 166 678 145 775 76 c 0
 878 2 916 -28 931 -51 c 0
 936 -59 939 -67 939 -75 c 0
 939 -83 935 -91 928 -94 c 0
 923 -96 922 -97 912 -97 c 0
 899 -97 886 -93 865 -86 c 0
 802 -63 684 3 572 78 c 0
 548 94 514 118 503 125 c 2
 500 128 l 1
 479 113 l 2
 362 29 209 -59 135 -86 c 0
 115 -93 96 -97 84 -97 c 0
 81 -97 78 -97 76 -96 c 0
523 299 m 0
 540 314 567 341 579 354 c 0
 616 398 630 434 630 472 c 0
 630 488 627 497 622 509 c 0
 608 538 588 554 547 569 c 0
 534 575 520 578 505 578 c 0
 485 578 464 573 443 565 c 0
 408 552 391 538 379 513 c 0
 372 501 369 485 369 469 c 0
 369 461 370 452 372 443 c 0
 381 398 418 349 487 290 c 2
 500 279 l 1
 505 283 l 2
 508 285 516 293 523 299 c 0
EndSplineSet
Validated: 1
EndChar

StartChar: S
Encoding: 83 83 8
Width: 1000
VWidth: 0
HStem: 28 138<375.255 620.772> 326 246<432.883 570.801>
VStem: 378 247<380.199 517.801>
LayerCount: 2
Fore
SplineSet
502 572 m 0
 570 572 625 517 625 449 c 0
 625 381 570 326 502 326 c 0
 434 326 378 381 378 449 c 0
 378 517 434 572 502 572 c 0
117 326 m 0
 133 326 149 315 179 293 c 0
 189 286 199 278 209 272 c 0
 279 213 409 166 500 166 c 0
 601 166 743 224 816 295 c 1
 843 315 864 326 883 326 c 0
 897 326 910 320 923 310 c 0
 943 296 960 262 960 239 c 0
 960 236 960 233 959 230 c 0
 953 203 863 133 785 94 c 0
 698 51 588 28 486 28 c 0
 445 28 405 31 369 39 c 0
 206 75 54 166 41 235 c 0
 40 239 40 244 40 248 c 0
 40 276 56 302 85 316 c 0
 98 322 107 326 117 326 c 0
EndSplineSet
Validated: 1
EndChar

StartChar: s
Encoding: 115 115 9
Width: 1000
VWidth: 0
Flags: W
HStem: 28 138<375.255 620.772> 326 246<432.883 570.801>
VStem: 378 247<380.199 517.801>
LayerCount: 2
Fore
SplineSet
502 572 m 0
 570 572 625 517 625 449 c 0
 625 381 570 326 502 326 c 0
 434 326 378 381 378 449 c 0
 378 517 434 572 502 572 c 0
117 326 m 0
 133 326 149 315 179 293 c 0
 189 286 199 278 209 272 c 0
 279 213 409 166 500 166 c 0
 601 166 743 224 816 295 c 1
 843 315 864 326 883 326 c 0
 897 326 910 320 923 310 c 0
 943 296 960 262 960 239 c 0
 960 236 960 233 959 230 c 0
 953 203 863 133 785 94 c 0
 698 51 588 28 486 28 c 0
 445 28 405 31 369 39 c 0
 206 75 54 166 41 235 c 0
 40 239 40 244 40 248 c 0
 40 276 56 302 85 316 c 0
 98 322 107 326 117 326 c 0
EndSplineSet
Validated: 1
EndChar

StartChar: Z
Encoding: 90 90 10
Width: 1000
VWidth: 0
Flags: HW
HStem: 25 144<367.668 625.142> 484 1<489.132 504.782> 485 90<443.533 551.472>
VStem: 301 85<320.161 408.138> 581 117<367.156 453.578> 698 1<353.844 374.523>
LayerCount: 2
Fore
SplineSet
368 31 m 0x90
 260 53 155 99 72 173 c 0
 52 190 39 215 39 241 c 0
 39 253 42 266 49 277 c 0
 63 297 89 317 115 317 c 0
 125 317 135 314 144 307 c 0
 199 271 251 230 314 209 c 0
 368 190 422 169 481 169 c 1
 533 169 586 172 634 193 c 1
 702 214 766 247 822 291 c 0
 839 305 862 316 883 316 c 0
 897 316 910 312 921 302 c 0
 943 286 962 260 962 233 c 0
 962 230 961 228 961 225 c 1
 936 181 891 154 851 125 c 0
 722 39 559 25 405 25 c 0
 392 25 380 28 368 31 c 0x90
698 362 m 1024xd4
301 360 m 1024
449 569 m 1024
692 413 m 1024
385 339 m 0
 385 339 385 339 385 339 c 0
581 422 m 0x98
 581 422 581 422 581 422 c 0x98
663 307 m 0
 663 307 663 307 663 307 c 0
301 360 m 0
 301 455 357 544 436 566 c 1
 455 573 476 576 496 576 c 0
 579 576 663 523 689 428 c 0
 693 410 698 386 698 364 c 0xd4
 698 337 690 312 663 306 c 1
 607 306 603 380 581 422 c 1
 566 460 531 484 497 484 c 0xd8
 483 484 469 481 456 472 c 0
 414 444 398 388 386 339 c 1
 379 320 364 311 349 311 c 0
 326 311 301 330 301 360 c 0
EndSplineSet
EndChar

StartChar: z
Encoding: 122 122 11
Width: 1000
VWidth: 0
Flags: W
HStem: 25 144<367.668 625.142> 484 92<444.49 550.791>
VStem: 301 85<319.239 408.143> 581 117<364.451 453.602>
LayerCount: 2
Fore
SplineSet
368 31 m 0
 260 53 155 99 72 173 c 0
 52 190 39 215 39 241 c 0
 39 253 42 266 49 277 c 0
 63 297 89 317 115 317 c 0
 125 317 135 314 144 307 c 0
 199 271 251 230 314 209 c 0
 368 190 422 169 481 169 c 1
 533 169 586 172 634 193 c 1
 702 214 766 247 822 291 c 0
 839 305 862 316 883 316 c 0
 897 316 910 312 921 302 c 0
 943 286 962 260 962 233 c 0
 962 230 961 228 961 225 c 1
 936 181 891 154 851 125 c 0
 722 39 559 25 405 25 c 0
 392 25 380 28 368 31 c 0
698 362 m 1024
301 360 m 1024
449 569 m 1024
692 413 m 1024
385 339 m 0
 385 339 385 339 385 339 c 0
581 422 m 0
 581 422 581 422 581 422 c 0
663 307 m 0
 663 307 663 307 663 307 c 0
301 360 m 0
 301 455 357 544 436 566 c 1
 455 573 476 576 496 576 c 0
 579 576 663 523 689 428 c 0
 693 410 698 386 698 364 c 0
 698 337 690 312 663 306 c 1
 607 306 603 380 581 422 c 1
 566 460 531 484 497 484 c 0
 483 484 469 481 456 472 c 0
 414 444 398 388 386 339 c 1
 379 320 364 311 349 311 c 0
 326 311 301 330 301 360 c 0
EndSplineSet
Validated: 1
EndChar

StartChar: C
Encoding: 67 67 12
Width: 1000
VWidth: 0
HStem: -120 291<445.809 554.858>
VStem: 419 160<-92.1065 25.6011>
LayerCount: 2
Fore
SplineSet
118 318 m 0
 136 318 150 302 165 294 c 0
 223 250 288 214 358 193 c 1
 400 174 445 171 490 171 c 0
 513 171 536 172 558 172 c 0
 608 172 655 201 702 218 c 0
 754 238 797 276 844 305 c 1
 855 313 866 317 878 317 c 0
 902 317 926 302 941 283 c 0
 952 270 961 252 961 235 c 0
 961 223 957 211 946 202 c 0
 873 128 779 74 679 46 c 1
 649 32 598 38 578 19 c 1
 578 4 579 -12 579 -27 c 0
 579 -51 576 -74 559 -93 c 0
 545 -112 523 -120 501 -120 c 0
 476 -120 449 -108 434 -86 c 0
 422 -68 419 -48 419 -27 c 0
 419 -10 419 7 419 23 c 1
 336 33 256 57 181 97 c 0
 131 128 72 156 44 212 c 0
 40 221 38 229 38 238 c 0
 38 279 76 318 118 318 c 0
EndSplineSet
Validated: 1
EndChar

StartChar: c
Encoding: 99 99 13
Width: 1000
VWidth: 0
Flags: W
HStem: -120 291<445.809 554.858>
VStem: 419 160<-92.1065 25.6011>
LayerCount: 2
Fore
SplineSet
118 318 m 0
 136 318 150 302 165 294 c 0
 223 250 288 214 358 193 c 1
 400 174 445 171 490 171 c 0
 513 171 536 172 558 172 c 0
 608 172 655 201 702 218 c 0
 754 238 797 276 844 305 c 1
 855 313 866 317 878 317 c 0
 902 317 926 302 941 283 c 0
 952 270 961 252 961 235 c 0
 961 223 957 211 946 202 c 0
 873 128 779 74 679 46 c 1
 649 32 598 38 578 19 c 1
 578 4 579 -12 579 -27 c 0
 579 -51 576 -74 559 -93 c 0
 545 -112 523 -120 501 -120 c 0
 476 -120 449 -108 434 -86 c 0
 422 -68 419 -48 419 -27 c 0
 419 -10 419 7 419 23 c 1
 336 33 256 57 181 97 c 0
 131 128 72 156 44 212 c 0
 40 221 38 229 38 238 c 0
 38 279 76 318 118 318 c 0
EndSplineSet
Validated: 1
EndChar

StartChar: M
Encoding: 77 77 14
Width: 1000
VWidth: 0
Flags: H
HStem: -170 21G<370.5 629.5> 750 20G<370.5 629.5> 750 20G<370.5 629.5>
VStem: 30 940<160.449 439.551>
LayerCount: 2
Fore
SplineSet
500 770 m 0xd0
 759 770 970 559 970 300 c 0
 970 41 759 -170 500 -170 c 0
 241 -170 30 41 30 300 c 0
 30 559 241 770 500 770 c 0xd0
EndSplineSet
EndChar

StartChar: m
Encoding: 109 109 15
Width: 1000
VWidth: 0
Flags: HW
HStem: -170 21G<370.5 629.5> 750 20G<370.5 629.5> 750 20G<370.5 629.5>
VStem: 30 940<160.449 439.551>
LayerCount: 2
Fore
SplineSet
500 770 m 0xd0
 759 770 970 559 970 300 c 0
 970 41 759 -170 500 -170 c 0
 241 -170 30 41 30 300 c 0
 30 559 241 770 500 770 c 0xd0
EndSplineSet
EndChar

StartChar: N
Encoding: 78 78 16
Width: 1000
VWidth: 0
HStem: -168 298<417.968 582.032> 470 300<417.968 582.032>
VStem: 32 298<217.968 382.065> 670 298<217.968 382.065>
LayerCount: 2
Fore
SplineSet
500 770 m 0
 759 770 968 559 968 300 c 0
 968 41 759 -168 500 -168 c 0
 241 -168 32 41 32 300 c 0
 32 559 241 770 500 770 c 0
500 470 m 0
 406 470 330 394 330 300 c 0
 330 206 406 130 500 130 c 0
 594 130 670 206 670 300 c 0
 670 394 594 470 500 470 c 0
EndSplineSet
Validated: 1
EndChar

StartChar: n
Encoding: 110 110 17
Width: 1000
VWidth: 0
Flags: W
HStem: -168 298<417.968 582.032> 470 300<417.968 582.032>
VStem: 32 298<217.968 382.065> 670 298<217.968 382.065>
LayerCount: 2
Fore
SplineSet
500 770 m 0
 759 770 968 559 968 300 c 0
 968 41 759 -168 500 -168 c 0
 241 -168 32 41 32 300 c 0
 32 559 241 770 500 770 c 0
500 470 m 0
 406 470 330 394 330 300 c 0
 330 206 406 130 500 130 c 0
 594 130 670 206 670 300 c 0
 670 394 594 470 500 470 c 0
EndSplineSet
Validated: 1
EndChar

StartChar: A
Encoding: 65 65 18
Width: 1000
VWidth: 0
Flags: H
HStem: -170 21G<340.5 599.5> 750 20G<340.5 599.5> 750 20G<340.5 599.5>
VStem: -0 130<193.236 409.053> 392 153<-32 637> 820 120<191.385 416.767>
LayerCount: 2
Fore
SplineSet
-0 300 m 0xdc
 0 559 211 770 470 770 c 0
 729 770 940 559 940 300 c 0
 940 41 729 -170 470 -170 c 0
 211 -170 -0 41 -0 300 c 0xdc
130 302 m 0
 130 154 247 4 392 -32 c 1
 392 637 l 1
 247 601 130 451 130 302 c 0
545 -35 m 1
 697 -4 820 148 820 302 c 0
 820 458 697 609 545 640 c 1
 545 -35 l 1
EndSplineSet
EndChar

StartChar: a
Encoding: 97 97 19
Width: 1000
VWidth: 0
Flags: HW
HStem: -170 21G<340.5 599.5> 750 20G<340.5 599.5> 750 20G<340.5 599.5>
VStem: -0 130<193.236 409.053> 392 153<-32 637> 820 120<191.385 416.767>
LayerCount: 2
Fore
SplineSet
-0 300 m 0xdc
 0 559 211 770 470 770 c 0
 729 770 940 559 940 300 c 0
 940 41 729 -170 470 -170 c 0
 211 -170 -0 41 -0 300 c 0xdc
130 302 m 0
 130 154 247 4 392 -32 c 1
 392 637 l 1
 247 601 130 451 130 302 c 0
545 -35 m 1
 697 -4 820 148 820 302 c 0
 820 458 697 609 545 640 c 1
 545 -35 l 1
EndSplineSet
EndChar

StartChar: E
Encoding: 69 69 20
Width: 1000
VWidth: 0
Flags: H
HStem: -170 120<353.223 589.099> 640 130<353.223 589.099>
VStem: -0 128<179.662 409.686> 818 122<179.662 409.686>
LayerCount: 2
Fore
SplineSet
470 770 m 0
 729 770 940 559 940 300 c 0
 940 41 729 -170 470 -170 c 0
 211 -170 -0 41 -0 300 c 0
 -0 559 211 770 470 770 c 0
472 640 m 0
 282 640 128 485 128 295 c 0
 128 105 282 -50 472 -50 c 0
 663 -50 818 105 818 295 c 0
 818 485 663 640 472 640 c 0
EndSplineSet
EndChar

StartChar: e
Encoding: 101 101 21
Width: 1000
VWidth: 0
Flags: HW
HStem: -170 120<353.223 589.099> 640 130<353.223 589.099>
VStem: -0 128<179.662 409.686> 818 122<179.662 409.686>
LayerCount: 2
Fore
SplineSet
470 770 m 0
 729 770 940 559 940 300 c 0
 940 41 729 -170 470 -170 c 0
 211 -170 -0 41 -0 300 c 0
 -0 559 211 770 470 770 c 0
472 640 m 0
 282 640 128 485 128 295 c 0
 128 105 282 -50 472 -50 c 0
 663 -50 818 105 818 295 c 0
 818 485 663 640 472 640 c 0
EndSplineSet
EndChar

StartChar: I
Encoding: 73 73 22
Width: 1000
VWidth: 0
Flags: H
HStem: -170 120<361.385 586.767> 225 153<138 807> 640 130<363.236 579.053>
VStem: -0 940<228.556 371.444>
LayerCount: 2
Fore
SplineSet
470 770 m 0
 729 770 940 559 940 300 c 0
 940 41 729 -170 470 -170 c 0
 211 -170 -0 41 -0 300 c 0
 0 559 211 770 470 770 c 0
472 640 m 0
 324 640 174 523 138 378 c 1
 807 378 l 1
 771 523 621 640 472 640 c 0
135 225 m 1
 166 73 318 -50 472 -50 c 0
 628 -50 779 73 810 225 c 1
 135 225 l 1
EndSplineSet
EndChar

StartChar: i
Encoding: 105 105 23
Width: 1000
VWidth: 0
Flags: HW
HStem: -170 120<361.385 586.767> 225 153<138 807> 640 130<363.236 579.053>
VStem: -0 940<228.556 371.444>
LayerCount: 2
Fore
SplineSet
470 770 m 0
 729 770 940 559 940 300 c 0
 940 41 729 -170 470 -170 c 0
 211 -170 -0 41 -0 300 c 0
 0 559 211 770 470 770 c 0
472 640 m 0
 324 640 174 523 138 378 c 1
 807 378 l 1
 771 523 621 640 472 640 c 0
135 225 m 1
 166 73 318 -50 472 -50 c 0
 628 -50 779 73 810 225 c 1
 135 225 l 1
EndSplineSet
EndChar

StartChar: O
Encoding: 79 79 24
Width: 1000
VWidth: 0
Flags: H
HStem: -170 120<353.223 589.099> 61 116<403.348 541.315> 426 113<403.348 541.315> 640 130<353.223 589.099>
VStem: -0 128<179.662 409.686> 231 116<233.348 371.095> 596 113<233.348 371.095> 818 122<179.662 409.686>
LayerCount: 2
Fore
SplineSet
470 539 m 0
 602 539 709 432 709 300 c 0
 709 168 602 61 470 61 c 0
 338 61 231 168 231 300 c 0
 231 432 338 539 470 539 c 0
472 426 m 0
 403 426 347 370 347 302 c 0
 347 233 403 177 472 177 c 0
 541 177 596 233 596 302 c 0
 596 370 541 426 472 426 c 0
470 770 m 0
 729 770 940 559 940 300 c 0
 940 41 729 -170 470 -170 c 0
 211 -170 -0 41 -0 300 c 0
 0 559 211 770 470 770 c 0
472 640 m 0
 282 640 128 485 128 295 c 0
 128 105 282 -50 472 -50 c 0
 663 -50 818 105 818 295 c 0
 818 485 663 640 472 640 c 0
EndSplineSet
EndChar

StartChar: o
Encoding: 111 111 25
Width: 1000
VWidth: 0
Flags: HW
HStem: -170 120<353.223 589.099> 61 116<403.348 541.315> 426 113<403.348 541.315> 640 130<353.223 589.099>
VStem: -0 128<179.662 409.686> 231 116<233.348 371.095> 596 113<233.348 371.095> 818 122<179.662 409.686>
LayerCount: 2
Fore
SplineSet
470 539 m 0
 602 539 709 432 709 300 c 0
 709 168 602 61 470 61 c 0
 338 61 231 168 231 300 c 0
 231 432 338 539 470 539 c 0
472 426 m 0
 403 426 347 370 347 302 c 0
 347 233 403 177 472 177 c 0
 541 177 596 233 596 302 c 0
 596 370 541 426 472 426 c 0
470 770 m 0
 729 770 940 559 940 300 c 0
 940 41 729 -170 470 -170 c 0
 211 -170 -0 41 -0 300 c 0
 0 559 211 770 470 770 c 0
472 640 m 0
 282 640 128 485 128 295 c 0
 128 105 282 -50 472 -50 c 0
 663 -50 818 105 818 295 c 0
 818 485 663 640 472 640 c 0
EndSplineSet
EndChar

StartChar: U
Encoding: 85 85 26
Width: 1000
VWidth: 0
Flags: H
HStem: -170 120<353.223 589.099> 180 247<405.199 542.801> 640 130<353.223 589.099>
VStem: -0 128<179.662 409.686> 351 246<234.199 372.557> 818 122<179.662 409.686>
LayerCount: 2
Fore
SplineSet
470 770 m 0
 729 770 940 559 940 300 c 0
 940 41 729 -170 470 -170 c 0
 211 -170 -0 41 -0 300 c 0
 0 559 211 770 470 770 c 0
472 640 m 0
 282 640 128 485 128 295 c 0
 128 105 282 -50 472 -50 c 0
 663 -50 818 105 818 295 c 0
 818 485 663 640 472 640 c 0
474 427 m 0
 542 427 597 372 597 303 c 0
 597 235 542 180 474 180 c 0
 406 180 351 235 351 303 c 0
 351 372 406 427 474 427 c 0
EndSplineSet
EndChar

StartChar: u
Encoding: 117 117 27
Width: 1000
VWidth: 0
Flags: HW
HStem: -170 120<353.223 589.099> 180 247<405.199 542.801> 640 130<353.223 589.099>
VStem: -0 128<179.662 409.686> 351 246<234.199 372.557> 818 122<179.662 409.686>
LayerCount: 2
Fore
SplineSet
470 770 m 0
 729 770 940 559 940 300 c 0
 940 41 729 -170 470 -170 c 0
 211 -170 -0 41 -0 300 c 0
 0 559 211 770 470 770 c 0
472 640 m 0
 282 640 128 485 128 295 c 0
 128 105 282 -50 472 -50 c 0
 663 -50 818 105 818 295 c 0
 818 485 663 640 472 640 c 0
474 427 m 0
 542 427 597 372 597 303 c 0
 597 235 542 180 474 180 c 0
 406 180 351 235 351 303 c 0
 351 372 406 427 474 427 c 0
EndSplineSet
EndChar

StartChar: W
Encoding: 87 87 28
Width: 1000
VWidth: 0
HStem: 215 233<432.877 567.123>
VStem: 384 232<263.877 398.896>
LayerCount: 2
Fore
SplineSet
500 448 m 0
 564 448 616 396 616 331 c 0
 616 267 564 215 500 215 c 0
 436 215 384 267 384 331 c 0
 384 396 436 448 500 448 c 0
EndSplineSet
Validated: 1
EndChar

StartChar: w
Encoding: 119 119 29
Width: 1000
VWidth: 0
Flags: W
HStem: 215 233<432.877 567.123>
VStem: 384 232<263.877 398.896>
LayerCount: 2
Fore
SplineSet
500 448 m 0
 564 448 616 396 616 331 c 0
 616 267 564 215 500 215 c 0
 436 215 384 267 384 331 c 0
 384 396 436 448 500 448 c 0
EndSplineSet
Validated: 1
EndChar

StartChar: Y
Encoding: 89 89 30
Width: 1000
VWidth: 0
HStem: 257 140<179 821>
LayerCount: 2
Fore
SplineSet
130 331 m 24
 130 363 179 397 179 397 c 1
 821 397 l 1
 821 397 868 359 868 325 c 24
 868 293 821 257 821 257 c 1
 179 257 l 1
 179 257 130 297 130 331 c 24
EndSplineSet
Validated: 1
EndChar

StartChar: y
Encoding: 121 121 31
Width: 1000
VWidth: 0
Flags: W
HStem: 257 140<179 821>
LayerCount: 2
Fore
SplineSet
130 331 m 24
 130 363 179 397 179 397 c 1
 821 397 l 1
 821 397 868 359 868 325 c 24
 868 293 821 257 821 257 c 1
 179 257 l 1
 179 257 130 297 130 331 c 24
EndSplineSet
Validated: 1
EndChar

StartChar: P
Encoding: 80 80 32
Width: 1000
VWidth: 0
HStem: -168 130<538.859 833> -168 116<52.5562 362.375> 214 128<538.859 833> 214 114<52.5562 350.609> 744 20G<865 909.5>
VStem: 833 126<-38 207.962> 833 119<5.25072 214 342 743.749>
LayerCount: 2
Fore
SplineSet
896 764 m 0x2a
 923 764 952 742 952 715 c 0x2a
 952 475 959 234 959 -6 c 1
 958 -13 958 -20 958 -27 c 0
 958 -45 960 -64 960 -82 c 0
 960 -115 954 -146 920 -162 c 1
 821 -162 721 -168 622 -168 c 0xac
 445 -168 269 -168 92 -168 c 0
 59 -168 41 -137 41 -107 c 0
 41 -82 53 -57 80 -52 c 1x4c
 331 -52 582 -38 833 -38 c 1x8c
 833 47 833 130 833 214 c 1
 765 214 695 214 627 214 c 0xaa
 448 214 270 214 92 214 c 0
 59 214 41 244 41 274 c 0
 41 299 53 323 80 328 c 1x1a
 331 328 582 342 833 342 c 1
 833 440 833 538 833 635 c 0
 833 683 834 764 896 764 c 0x2a
EndSplineSet
Validated: 1
EndChar

StartChar: p
Encoding: 112 112 33
Width: 1000
VWidth: 0
Flags: W
HStem: -168 130<538.859 833> -168 116<52.5562 362.375> 214 128<538.859 833> 214 114<52.5562 350.609> 744 20G<865 909.5>
VStem: 833 126<-38 207.962> 833 119<5.25072 214 342 743.749>
LayerCount: 2
Fore
SplineSet
896 764 m 0x2a
 923 764 952 742 952 715 c 0x2a
 952 475 959 234 959 -6 c 1
 958 -13 958 -20 958 -27 c 0
 958 -45 960 -64 960 -82 c 0
 960 -115 954 -146 920 -162 c 1
 821 -162 721 -168 622 -168 c 0xac
 445 -168 269 -168 92 -168 c 0
 59 -168 41 -137 41 -107 c 0
 41 -82 53 -57 80 -52 c 1x4c
 331 -52 582 -38 833 -38 c 1x8c
 833 47 833 130 833 214 c 1
 765 214 695 214 627 214 c 0xaa
 448 214 270 214 92 214 c 0
 59 214 41 244 41 274 c 0
 41 299 53 323 80 328 c 1x1a
 331 328 582 342 833 342 c 1
 833 440 833 538 833 635 c 0
 833 683 834 764 896 764 c 0x2a
EndSplineSet
Validated: 1
EndChar

StartChar: T
Encoding: 84 84 34
Width: 1000
VWidth: 0
Flags: H
HStem: -169 117<54.0324 358.438> -163 123<451.25 833.275> 178 248<439.021 573.119> 744 20G<867 909.5>
VStem: 379 248<232.378 366.684> 834 124<-37.5181 741.93>
LayerCount: 2
Fore
SplineSet
896 764 m 0x7c
 923 764 952 741 952 715 c 0
 952 484 958 253 958 21 c 1
 958 -7 961 -36 961 -64 c 0
 961 -87 959 -110 951 -132 c 0
 939 -159 916 -163 891 -163 c 0
 879 -163 867 -163 855 -163 c 0
 849 -163 844 -162 839 -163 c 1x7c
 591 -163 343 -169 95 -169 c 0
 60 -169 41 -137 41 -106 c 0
 41 -81 53 -58 80 -52 c 1xbc
 300 -52 520 -39 740 -39 c 1
 745 -38 750 -37 756 -37 c 0
 770 -37 785 -40 799 -40 c 0
 818 -40 834 -34 834 -10 c 0
 834 199 834 408 834 618 c 0
 834 626 834 634 834 643 c 0
 834 694 838 756 896 764 c 0x7c
508 426 m 0
 564 426 614 381 624 326 c 0
 626 318 627 309 627 301 c 0
 627 239 575 178 512 178 c 1
 507 177 503 178 498 178 c 0
 435 178 379 235 379 298 c 0
 379 368 438 426 508 426 c 0
EndSplineSet
EndChar

StartChar: t
Encoding: 116 116 35
Width: 1000
VWidth: 0
Flags: HW
HStem: -169 117<54.0324 358.438> -163 123<451.25 833.275> 178 248<439.021 573.119> 744 20G<867 909.5>
VStem: 379 248<232.378 366.684> 834 124<-37.5181 741.93>
LayerCount: 2
Fore
SplineSet
896 764 m 0x7c
 923 764 952 741 952 715 c 0
 952 484 958 253 958 21 c 1
 958 -7 961 -36 961 -64 c 0
 961 -87 959 -110 951 -132 c 0
 939 -159 916 -163 891 -163 c 0
 879 -163 867 -163 855 -163 c 0
 849 -163 844 -162 839 -163 c 1x7c
 591 -163 343 -169 95 -169 c 0
 60 -169 41 -137 41 -106 c 0
 41 -81 53 -58 80 -52 c 1xbc
 300 -52 520 -39 740 -39 c 1
 745 -38 750 -37 756 -37 c 0
 770 -37 785 -40 799 -40 c 0
 818 -40 834 -34 834 -10 c 0
 834 199 834 408 834 618 c 0
 834 626 834 634 834 643 c 0
 834 694 838 756 896 764 c 0x7c
508 426 m 0
 564 426 614 381 624 326 c 0
 626 318 627 309 627 301 c 0
 627 239 575 178 512 178 c 1
 507 177 503 178 498 178 c 0
 435 178 379 235 379 298 c 0
 379 368 438 426 508 426 c 0
EndSplineSet
EndChar

StartChar: one
Encoding: 49 49 36
Width: 1000
VWidth: 0
HStem: -168 21G<485.5 507>
VStem: 412 163<-24.8106 629.054>
LayerCount: 2
Fore
SplineSet
452 -157 m 0
 413 -133 412 -148 412 240 c 0
 412 259 412 279 412 300 c 0
 412 334 412 368 412 397 c 0
 412 759 414 741 460 763 c 0
 474 770 482 773 492 773 c 0
 497 773 503 772 511 770 c 0
 538 763 558 743 568 717 c 0
 573 705 575 568 575 301 c 0
 575 -73 574 -98 563 -122 c 0
 550 -151 522 -168 492 -168 c 0
 479 -168 465 -165 452 -157 c 0
EndSplineSet
Validated: 1
EndChar

StartChar: zero
Encoding: 48 48 37
Width: 1000
VWidth: 0
Flags: H
HStem: -170 21G<370.5 629.5> 750 20G<370.5 629.5> 750 20G<370.5 629.5>
VStem: 30 940<160.449 439.551>
LayerCount: 2
Fore
SplineSet
500 770 m 0xd0
 759 770 970 559 970 300 c 0
 970 41 759 -170 500 -170 c 0
 241 -170 30 41 30 300 c 0
 30 559 241 770 500 770 c 0xd0
EndSplineSet
EndChar

StartChar: four
Encoding: 52 52 38
Width: 1000
VWidth: 0
Flags: H
HStem: -169 21G<251.5 272 727 744.5> -169 21G<251.5 272 727 744.5> 750 20G<257.5 271.5 725.5 749.5> 750 20G<257.5 271.5 725.5 749.5>
VStem: 420 163<260.945 340.157>
LayerCount: 2
Fore
SplineSet
224 -149 m 0x88
 209 -134 202 -120 202 -104 c 0
 202 -93 206 -80 214 -65 c 0
 220 -52 269 34 323 127 c 0
 377 219 420 297 420 301 c 0
 420 304 372 389 314 491 c 0
 255 592 204 685 204 696 c 0
 204 719 214 752 233 762 c 0
 241 766 252 770 263 770 c 0xa8
 280 770 299 763 309 754 c 0
 317 746 363 672 411 589 c 0
 472 483 497 444 504 444 c 0
 504 444 505 445 505 445 c 0
 509 449 548 516 593 593 c 0
 637 670 681 740 690 750 c 0x18
 702 762 718 770 733 770 c 0
 766 770 798 744 798 707 c 0
 798 688 778 648 696 505 c 0
 639 407 590 322 585 315 c 0
 584 313 583 311 583 308 c 0
 583 293 603 256 687 111 c 0
 770 -33 798 -82 798 -112 c 0
 798 -124 793 -133 785 -143 c 0
 772 -160 754 -169 735 -169 c 0xa8
 719 -169 702 -162 689 -148 c 0x48
 680 -140 636 -67 589 14 c 0
 543 95 503 162 501 162 c 0
 499 162 459 96 413 16 c 0
 367 -64 323 -137 314 -146 c 0
 303 -159 290 -166 272 -169 c 0
 266 -170 262 -169 258 -169 c 0
 245 -169 239 -164 224 -149 c 0x88
EndSplineSet
EndChar

StartChar: plus
Encoding: 43 43 39
Width: 1000
VWidth: 0
Flags: H
HStem: -170 120<311 695.937> 443 20G<491.5 510>
LayerCount: 2
Fore
SplineSet
172 -170 m 0
 155 -163 134 -131 134 -113 c 0
 134 -103 165 -43 211 38 c 0
 402 370 443 439 455 451 c 0
 464 459 482 463 501 463 c 0
 519 463 537 459 546 452 c 0
 553 446 628 321 712 174 c 0
 830 -30 866 -94 866 -124 c 0
 866 -137 859 -144 850 -153 c 0
 842 -162 831 -170 827 -170 c 0
 754 -170 491 -170 321 -170 c 0
 264 -170 218 -170 193 -170 c 0
 180 -170 173 -170 172 -170 c 0
696 -45 m 0
 684 -17 506 285 501 285 c 0
 494 284 316 -22 311 -39 c 0
 311 -40 311 -40 311 -41 c 0
 311 -49 333 -50 503 -50 c 0
 609 -50 696 -48 696 -45 c 0
EndSplineSet
EndChar

StartChar: slash
Encoding: 47 47 40
Width: 1000
VWidth: 0
HStem: -114 247<426.918 565.729> 240 129<72 785.255> 467 247<426.918 565.855>
VStem: 372 247<-57.2734 78.3613 523.98 659.801>
LayerCount: 2
Fore
SplineSet
453 -108 m 0
 408 -93 372 -38 372 10 c 0
 372 15 371 20 372 24 c 0
 381 79 414 115 466 129 c 0
 477 132 487 133 498 133 c 0
 565 133 619 77 619 10 c 0
 619 -2 618 -14 614 -26 c 0
 600 -81 550 -114 495 -114 c 0
 481 -114 467 -112 453 -108 c 0
53 256 m 1
 37 270 29 287 29 305 c 0
 29 315 31 324 36 333 c 0
 54 366 45 369 313 369 c 0
 366 369 431 369 509 369 c 1
 935 369 l 1
 953 348 l 2
 965 335 971 320 971 305 c 0
 971 296 969 286 964 275 c 0
 948 240 958 240 497 240 c 2
 72 240 l 1
 53 256 l 1
453 474 m 0
 408 488 372 543 372 592 c 0
 372 597 371 601 372 606 c 0
 381 660 414 696 466 710 c 0
 477 713 488 714 499 714 c 0
 565 714 619 659 619 591 c 0
 619 580 618 567 614 555 c 0
 600 502 550 467 495 467 c 0
 481 467 467 469 453 474 c 0
EndSplineSet
Validated: 1
EndChar

StartChar: equal
Encoding: 61 61 41
Width: 1000
VWidth: 0
HStem: 67 130<216.641 928> 403 130<181.775 950.905>
LayerCount: 2
Fore
SplineSet
63 75 m 0
 41 87 29 109 29 132 c 0
 29 150 36 168 52 181 c 2
 71 197 l 1
 500 197 l 1
 928 197 l 1
 949 175 l 2
 964 160 971 146 971 131 c 0
 971 117 965 103 952 89 c 2
 934 67 l 1
 507 67 l 1
 138 67 78 67 63 75 c 0
53 418 m 1
 43 427 33 441 30 450 c 0
 29 454 29 457 29 461 c 0
 29 483 40 508 57 520 c 0
 73 530 98 533 477 533 c 0
 698 533 892 533 907 531 c 0
 943 526 971 500 971 472 c 0
 971 448 956 418 940 409 c 0
 932 405 781 403 500 403 c 2
 71 403 l 1
 53 418 l 1
EndSplineSet
Validated: 1
EndChar

StartChar: asterisk
Encoding: 42 42 42
Width: 1000
VWidth: 0
HStem: -171 21G<324 342 660.5 675> 67 131<47.2774 261 399.12 602 736 928> 401 134<49.8747 261 399 599 736 950.651> 750 20G<329.5 341.5 658 671.5> 750 20G<329.5 341.5 658 671.5>
VStem: 264 135<-149.55 67 199.993 401 537 750.125> 602 132<-128 67 198 401 536 751.719>
LayerCount: 2
Fore
SplineSet
294 -158 m 0xf6
 271 -140 264 -110 264 -16 c 2
 264 67 l 1
 173 67 l 2
 72 67 53 72 36 105 c 0
 31 114 29 124 29 133 c 0
 29 151 37 169 53 182 c 0
 71 198 74 198 168 198 c 2
 261 198 l 1
 261 300 l 1
 261 401 l 1
 163 401 l 1
 71 401 64 408 50 422 c 0
 36 435 29 450 29 467 c 0
 29 474 31 481 33 489 c 0
 46 527 62 537 169 537 c 1
 264 537 l 1
 264 631 l 1
 264 738 273 754 311 767 c 0
 319 769 326 770 333 770 c 0xf6
 350 770 365 764 378 750 c 0xee
 392 736 396 729 396 637 c 1
 396 535 l 1
 500 535 l 1
 602 535 l 1
 602 632 l 2
 602 726 602 729 618 747 c 0
 631 763 649 770 667 770 c 0
 676 770 686 769 695 764 c 0
 728 747 733 728 733 627 c 2
 733 536 l 1
 816 536 l 2
 862 536 909 533 922 529 c 0
 950 521 971 497 971 471 c 0
 971 445 950 412 932 408 c 0
 924 406 877 401 827 401 c 1
 736 401 l 1
 736 300 l 1
 736 198 l 1
 831 198 l 1
 928 198 l 1
 949 177 l 2
 964 162 971 147 971 132 c 0
 971 118 965 104 952 90 c 2
 934 70 l 1
 834 70 l 1
 734 70 l 1
 734 -34 l 1
 734 -134 l 1
 710 -152 l 2
 696 -165 682 -171 668 -171 c 0
 653 -171 638 -164 623 -149 c 2
 602 -128 l 1
 602 -31 l 1
 602 67 l 1
 500 67 l 1
 399 67 l 1
 399 -27 l 1
 399 -77 394 -124 392 -132 c 0
 388 -150 355 -171 329 -171 c 0
 319 -171 303 -165 294 -158 c 0xf6
599 300 m 1
 599 401 l 1
 499 401 l 1
 399 401 l 1
 399 308 l 1
 399 266 398 229 398 214 c 0
 398 210 398 207 398 206 c 0
 401 200 426 198 502 198 c 2
 602 198 l 1
 599 300 l 1
EndSplineSet
Validated: 1
EndChar

StartChar: hyphen
Encoding: 45 45 43
Width: 1000
VWidth: 0
HStem: 355 119<309.036 692.844>
VStem: 135 174<342.5 431.5>
LayerCount: 2
Fore
SplineSet
466 -153 m 0
 448 -144 421 -101 290 127 c 0
 172 332 135 394 135 425 c 0
 135 438 142 445 152 455 c 2
 171 474 l 1
 500 474 l 1
 829 474 l 1
 847 455 l 2
 857 445 865 438 865 424 c 0
 865 393 829 331 713 130 c 0
 629 -15 555 -140 548 -146 c 0
 538 -156 521 -162 503 -162 c 0
 490 -162 477 -159 466 -153 c 0
601 182 m 0
 652 271 693 346 693 350 c 0
 691 353 604 355 499 355 c 0
 358 355 309 353 309 348 c 0
 309 337 497 15 502 15 c 0
 504 17 548 92 601 182 c 0
EndSplineSet
Validated: 1
EndChar

StartChar: parenleft
Encoding: 40 40 44
Width: 1000
VWidth: 0
VStem: 363 90<138.622 437.885>
LayerCount: 2
Fore
SplineSet
559 783 m 0
 566 792 577 796 589 796 c 0
 599 796 610 793 619 785 c 0
 631 775 637 761 637 748 c 0
 637 741 635 734 631 728 c 0
 583 665 540 600 509 530 c 0
 492 493 479 456 469 417 c 0
 460 381 453 344 453 306 c 0
 453 269 454 231 461 195 c 0
 468 156 480 118 495 81 c 0
 512 41 533 3 557 -34 c 0
 578 -66 601 -96 625 -126 c 0
 630 -132 633 -140 633 -148 c 0
 633 -160 627 -174 616 -184 c 0
 606 -192 595 -196 584 -196 c 0
 573 -196 563 -192 556 -184 c 0
 530 -152 504 -119 481 -84 c 0
 454 -43 431 1 412 47 c 2
 394 89 381 133 372 178 c 0
 364 222 363 266 363 310 c 0
 363 354 371 397 382 439 c 2
 393 483 408 526 426 567 c 0
 462 645 508 717 559 783 c 0
EndSplineSet
Validated: 1
EndChar

StartChar: parenright
Encoding: 41 41 45
Width: 1000
VWidth: 0
VStem: 547 90<162.115 461.378>
LayerCount: 2
Fore
SplineSet
375 726 m 0
 370 732 367 740 367 748 c 0
 367 760 373 774 384 784 c 0
 394 792 405 796 416 796 c 0
 427 796 437 792 444 784 c 0
 470 752 496 719 519 684 c 0
 546 643 569 599 588 553 c 0
 606 511 619 467 628 422 c 0
 636 378 637 334 637 290 c 0
 637 246 629 203 618 161 c 0
 607 117 592 74 574 33 c 0
 538 -45 492 -117 441 -183 c 0
 434 -192 423 -196 411 -196 c 0
 401 -196 390 -193 381 -185 c 0
 369 -175 363 -161 363 -148 c 0
 363 -141 365 -134 369 -128 c 0
 417 -65 460 0 491 70 c 0
 508 107 521 144 531 183 c 0
 540 219 547 256 547 294 c 0
 547 331 546 369 539 405 c 0
 532 444 520 482 505 519 c 0
 488 559 467 597 443 634 c 0
 422 666 399 696 375 726 c 0
EndSplineSet
Validated: 1
EndChar

StartChar: comma
Encoding: 44 44 46
Width: 1000
VWidth: 0
HStem: -193 311<483.227 512.677>
VStem: 417 166<-17.2812 90.871>
LayerCount: 2
Fore
SplineSet
500 118 m 0
 546 118 583 81 583 35 c 0
 583 33 583 29 582 26 c 0
 582 24 582 22 581 19 c 0
 580 12 576 2 573 -4 c 2
 512 -174 l 2
 508 -184 497 -193 485 -193 c 0
 483 -193 482 -193 480 -193 c 2
 456 -187 l 2
 446 -185 439 -178 439 -168 c 0
 439 -166 440 -162 441 -159 c 2
 482 -46 l 1
 446 -37 417 -1 417 35 c 0
 417 81 454 118 500 118 c 0
EndSplineSet
Validated: 1
EndChar

StartChar: period
Encoding: 46 46 47
Width: 1000
VWidth: 0
HStem: -128 166<444.129 555.871>
VStem: 417 166<-100.871 10.871>
LayerCount: 2
Fore
SplineSet
417 -45 m 0
 417 1 454 38 500 38 c 0
 546 38 583 1 583 -45 c 0
 583 -91 546 -128 500 -128 c 0
 454 -128 417 -91 417 -45 c 0
EndSplineSet
Validated: 1
EndChar

StartChar: bracketleft
Encoding: 91 91 48
Width: 1000
VWidth: 0
Flags: W
VStem: 363 90<138.622 437.885>
LayerCount: 2
Fore
SplineSet
559 783 m 0
 566 792 577 796 589 796 c 0
 599 796 610 793 619 785 c 0
 631 775 637 761 637 748 c 0
 637 741 635 734 631 728 c 0
 583 665 540 600 509 530 c 0
 492 493 479 456 469 417 c 0
 460 381 453 344 453 306 c 0
 453 269 454 231 461 195 c 0
 468 156 480 118 495 81 c 0
 512 41 533 3 557 -34 c 0
 578 -66 601 -96 625 -126 c 0
 630 -132 633 -140 633 -148 c 0
 633 -160 627 -174 616 -184 c 0
 606 -192 595 -196 584 -196 c 0
 573 -196 563 -192 556 -184 c 0
 530 -152 504 -119 481 -84 c 0
 454 -43 431 1 412 47 c 2
 394 89 381 133 372 178 c 0
 364 222 363 266 363 310 c 0
 363 354 371 397 382 439 c 2
 393 483 408 526 426 567 c 0
 462 645 508 717 559 783 c 0
EndSplineSet
Validated: 1
EndChar

StartChar: bracketright
Encoding: 93 93 49
Width: 1000
VWidth: 0
Flags: W
VStem: 547 90<162.115 461.378>
LayerCount: 2
Fore
SplineSet
375 726 m 0
 370 732 367 740 367 748 c 0
 367 760 373 774 384 784 c 0
 394 792 405 796 416 796 c 0
 427 796 437 792 444 784 c 0
 470 752 496 719 519 684 c 0
 546 643 569 599 588 553 c 0
 606 511 619 467 628 422 c 0
 636 378 637 334 637 290 c 0
 637 246 629 203 618 161 c 0
 607 117 592 74 574 33 c 0
 538 -45 492 -117 441 -183 c 0
 434 -192 423 -196 411 -196 c 0
 401 -196 390 -193 381 -185 c 0
 369 -175 363 -161 363 -148 c 0
 363 -141 365 -134 369 -128 c 0
 417 -65 460 0 491 70 c 0
 508 107 521 144 531 183 c 0
 540 219 547 256 547 294 c 0
 547 331 546 369 539 405 c 0
 532 444 520 482 505 519 c 0
 488 559 467 597 443 634 c 0
 422 666 399 696 375 726 c 0
EndSplineSet
Validated: 1
EndChar

StartChar: B
Encoding: 66 66 71
Width: 1000
VWidth: 0
Flags: HW
HStem: -166 128<538.859 833> -166 114<52.5562 350.609> 214 128<538.859 833> 214 114<52.5562 350.609> 744 20G<865 909.5>
VStem: 833 126<-38 207.962> 833 119<5.25072 214 342 743.749>
LayerCount: 2
Fore
SplineSet
896 764 m 0x2a
 923 764 952 742 952 715 c 0x2a
 952 475 959 234 959 -6 c 1
 958 -13 958 -20 958 -27 c 0
 958 -45 960 -64 960 -82 c 0
 960 -115 954 -146 920 -162 c 1
 821 -162 721 -166 622 -166 c 0xac
 445 -166 269 -166 92 -166 c 0
 59 -166 41 -136 41 -106 c 0
 41 -81 53 -57 80 -52 c 1x4c
 331 -52 582 -38 833 -38 c 1x8c
 833 47 833 130 833 214 c 1
 765 214 695 214 627 214 c 0xaa
 448 214 270 214 92 214 c 0
 59 214 41 244 41 274 c 0
 41 299 53 323 80 328 c 1x1a
 331 328 582 342 833 342 c 1
 833 440 833 538 833 635 c 0
 833 683 834 764 896 764 c 0x2a
EndSplineSet
EndChar

StartChar: D
Encoding: 68 68 72
Width: 1000
VWidth: 0
Flags: HW
HStem: -169 117<54.0324 358.438> -163 123<451.25 833.275> 178 248<439.021 573.119> 744 20G<867 909.5>
VStem: 379 248<232.378 366.684> 834 124<-37.5181 741.93>
LayerCount: 2
Fore
SplineSet
896 764 m 0x7c
 923 764 952 741 952 715 c 0
 952 484 958 253 958 21 c 1
 958 -7 961 -36 961 -64 c 0
 961 -87 959 -110 951 -132 c 0
 939 -159 916 -163 891 -163 c 0
 879 -163 867 -163 855 -163 c 0
 849 -163 844 -162 839 -163 c 1x7c
 591 -163 343 -169 95 -169 c 0
 60 -169 41 -137 41 -106 c 0
 41 -81 53 -58 80 -52 c 1xbc
 300 -52 520 -39 740 -39 c 1
 745 -38 750 -37 756 -37 c 0
 770 -37 785 -40 799 -40 c 0
 818 -40 834 -34 834 -10 c 0
 834 199 834 408 834 618 c 0
 834 626 834 634 834 643 c 0
 834 694 838 756 896 764 c 0x7c
508 426 m 0
 564 426 614 381 624 326 c 0
 626 318 627 309 627 301 c 0
 627 239 575 178 512 178 c 1
 507 177 503 178 498 178 c 0
 435 178 379 235 379 298 c 0
 379 368 438 426 508 426 c 0
EndSplineSet
EndChar

StartChar: K
Encoding: 75 75 74
Width: 1000
VWidth: 0
Flags: W
HStem: -106 143<407.963 553.071> 334 148<409.172 557.489>
VStem: 605 150<94.2708 277.193>
LayerCount: 2
Fore
SplineSet
321 350 m 1
 282 413 l 1
 358 459 431 482 497 482 c 0
 542 482 583 471 620 450 c 0
 713 396 755 293 755 192 c 0
 755 130 740 69 711 19 c 0
 666 -59 588 -106 490 -106 c 0
 428 -106 358 -87 284 -44 c 1
 321 20 l 1
 358 84 l 1
 416 50 460 37 493 37 c 0
 541 37 566 65 583 93 c 0
 599 120 605 153 605 185 c 0
 605 243 582 300 546 321 c 0
 534 328 517 334 495 334 c 0
 463 334 419 322 359 286 c 1
 321 350 l 1
EndSplineSet
Validated: 1
EndChar

StartChar: V
Encoding: 86 86 77
Width: 1000
VWidth: 0
Flags: W
HStem: 7 138<375.255 623.717> 296 138<375.322 621.23> 573 20G<112 125 873 889>
LayerCount: 2
Fore
SplineSet
117 593 m 0
 133 593 149 584 178 561 c 0
 188 554 199 547 209 540 c 0
 279 482 409 434 500 434 c 0
 601 434 743 492 816 563 c 1
 843 583 864 593 882 593 c 0
 896 593 909 588 923 578 c 0
 943 564 960 530 960 507 c 0
 960 504 960 501 959 498 c 0
 952 471 863 402 785 363 c 0
 699 320 589 296 487 296 c 0
 446 296 406 300 369 308 c 0
 206 343 54 434 41 503 c 0
 40 507 40 512 40 516 c 0
 40 544 56 570 85 584 c 0
 97 590 107 593 117 593 c 0
117 304 m 0
 133 304 149 294 179 272 c 0
 189 264 199 257 209 250 c 0
 279 192 409 145 500 145 c 0
 602 145 743 202 816 274 c 1
 843 294 864 303 883 303 c 0
 897 303 910 299 923 289 c 0
 943 274 960 241 960 218 c 0
 960 215 960 212 959 209 c 0
 953 182 863 112 785 73 c 0
 698 30 588 7 486 7 c 0
 445 7 405 10 369 18 c 0
 206 53 54 144 41 214 c 0
 40 218 40 222 40 227 c 0
 40 255 57 282 85 296 c 0
 98 302 107 304 117 304 c 0
EndSplineSet
Validated: 1
EndChar

StartChar: X
Encoding: 88 88 78
Width: 1000
VWidth: 0
Flags: HW
HStem: -169 21G<251.5 272 727 744.5> -169 21G<251.5 272 727 744.5> 750 20G<257.5 271.5 725.5 749.5> 750 20G<257.5 271.5 725.5 749.5>
VStem: 420 163<260.945 340.157>
LayerCount: 2
Fore
SplineSet
224 -149 m 0x88
 209 -134 202 -120 202 -104 c 0
 202 -93 206 -80 214 -65 c 0
 220 -52 269 34 323 127 c 0
 377 219 420 297 420 301 c 0
 420 304 372 389 314 491 c 0
 255 592 204 685 204 696 c 0
 204 719 214 752 233 762 c 0
 241 766 252 770 263 770 c 0xa8
 280 770 299 763 309 754 c 0
 317 746 363 672 411 589 c 0
 472 483 497 444 504 444 c 0
 504 444 505 445 505 445 c 0
 509 449 548 516 593 593 c 0
 637 670 681 740 690 750 c 0x18
 702 762 718 770 733 770 c 0
 766 770 798 744 798 707 c 0
 798 688 778 648 696 505 c 0
 639 407 590 322 585 315 c 0
 584 313 583 311 583 308 c 0
 583 293 603 256 687 111 c 0
 770 -33 798 -82 798 -112 c 0
 798 -124 793 -133 785 -143 c 0
 772 -160 754 -169 735 -169 c 0xa8
 719 -169 702 -162 689 -148 c 0x48
 680 -140 636 -67 589 14 c 0
 543 95 503 162 501 162 c 0
 499 162 459 96 413 16 c 0
 367 -64 323 -137 314 -146 c 0
 303 -159 290 -166 272 -169 c 0
 266 -170 262 -169 258 -169 c 0
 245 -169 239 -164 224 -149 c 0x88
EndSplineSet
EndChar

StartChar: b
Encoding: 98 98 83
Width: 1000
VWidth: 0
Flags: HW
HStem: -166 128<538.859 833> -166 114<52.5562 350.609> 214 128<538.859 833> 214 114<52.5562 350.609> 744 20G<865 909.5>
VStem: 833 126<-38 207.962> 833 119<5.25072 214 342 743.749>
LayerCount: 2
Fore
SplineSet
896 764 m 0x2a
 923 764 952 742 952 715 c 0x2a
 952 475 959 234 959 -6 c 1
 958 -13 958 -20 958 -27 c 0
 958 -45 960 -64 960 -82 c 0
 960 -115 954 -146 920 -162 c 1
 821 -162 721 -166 622 -166 c 0xac
 445 -166 269 -166 92 -166 c 0
 59 -166 41 -136 41 -106 c 0
 41 -81 53 -57 80 -52 c 1x4c
 331 -52 582 -38 833 -38 c 1x8c
 833 47 833 130 833 214 c 1
 765 214 695 214 627 214 c 0xaa
 448 214 270 214 92 214 c 0
 59 214 41 244 41 274 c 0
 41 299 53 323 80 328 c 1x1a
 331 328 582 342 833 342 c 1
 833 440 833 538 833 635 c 0
 833 683 834 764 896 764 c 0x2a
EndSplineSet
EndChar

StartChar: d
Encoding: 100 100 84
Width: 1000
VWidth: 0
Flags: HW
HStem: -169 117<54.0324 358.438> -163 123<451.25 833.275> 178 248<439.021 573.119> 744 20G<867 909.5>
VStem: 379 248<232.378 366.684> 834 124<-37.5181 741.93>
LayerCount: 2
Fore
SplineSet
896 764 m 0x7c
 923 764 952 741 952 715 c 0
 952 484 958 253 958 21 c 1
 958 -7 961 -36 961 -64 c 0
 961 -87 959 -110 951 -132 c 0
 939 -159 916 -163 891 -163 c 0
 879 -163 867 -163 855 -163 c 0
 849 -163 844 -162 839 -163 c 1x7c
 591 -163 343 -169 95 -169 c 0
 60 -169 41 -137 41 -106 c 0
 41 -81 53 -58 80 -52 c 1xbc
 300 -52 520 -39 740 -39 c 1
 745 -38 750 -37 756 -37 c 0
 770 -37 785 -40 799 -40 c 0
 818 -40 834 -34 834 -10 c 0
 834 199 834 408 834 618 c 0
 834 626 834 634 834 643 c 0
 834 694 838 756 896 764 c 0x7c
508 426 m 0
 564 426 614 381 624 326 c 0
 626 318 627 309 627 301 c 0
 627 239 575 178 512 178 c 1
 507 177 503 178 498 178 c 0
 435 178 379 235 379 298 c 0
 379 368 438 426 508 426 c 0
EndSplineSet
EndChar

StartChar: k
Encoding: 107 107 86
Width: 1000
VWidth: 0
Flags: W
HStem: -106 143<407.963 553.071> 334 148<409.172 557.489>
VStem: 605 150<94.2708 277.193>
LayerCount: 2
Fore
SplineSet
321 350 m 1
 282 413 l 1
 358 459 431 482 497 482 c 0
 542 482 583 471 620 450 c 0
 713 396 755 293 755 192 c 0
 755 130 740 69 711 19 c 0
 666 -59 588 -106 490 -106 c 0
 428 -106 358 -87 284 -44 c 1
 321 20 l 1
 358 84 l 1
 416 50 460 37 493 37 c 0
 541 37 566 65 583 93 c 0
 599 120 605 153 605 185 c 0
 605 243 582 300 546 321 c 0
 534 328 517 334 495 334 c 0
 463 334 419 322 359 286 c 1
 321 350 l 1
EndSplineSet
Validated: 1
EndChar

StartChar: v
Encoding: 118 118 89
Width: 1000
VWidth: 0
Flags: W
HStem: 7 138<375.255 623.717> 296 138<375.322 621.23> 573 20G<112 125 873 889>
LayerCount: 2
Fore
SplineSet
117 593 m 0
 133 593 149 584 178 561 c 0
 188 554 199 547 209 540 c 0
 279 482 409 434 500 434 c 0
 601 434 743 492 816 563 c 1
 843 583 864 593 882 593 c 0
 896 593 909 588 923 578 c 0
 943 564 960 530 960 507 c 0
 960 504 960 501 959 498 c 0
 952 471 863 402 785 363 c 0
 699 320 589 296 487 296 c 0
 446 296 406 300 369 308 c 0
 206 343 54 434 41 503 c 0
 40 507 40 512 40 516 c 0
 40 544 56 570 85 584 c 0
 97 590 107 593 117 593 c 0
117 304 m 0
 133 304 149 294 179 272 c 0
 189 264 199 257 209 250 c 0
 279 192 409 145 500 145 c 0
 602 145 743 202 816 274 c 1
 843 294 864 303 883 303 c 0
 897 303 910 299 923 289 c 0
 943 274 960 241 960 218 c 0
 960 215 960 212 959 209 c 0
 953 182 863 112 785 73 c 0
 698 30 588 7 486 7 c 0
 445 7 405 10 369 18 c 0
 206 53 54 144 41 214 c 0
 40 218 40 222 40 227 c 0
 40 255 57 282 85 296 c 0
 98 302 107 304 117 304 c 0
EndSplineSet
Validated: 1
EndChar

StartChar: x
Encoding: 120 120 90
Width: 1000
VWidth: 0
Flags: HW
HStem: -169 21G<251.5 272 727 744.5> -169 21G<251.5 272 727 744.5> 750 20G<257.5 271.5 725.5 749.5> 750 20G<257.5 271.5 725.5 749.5>
VStem: 420 163<260.945 340.157>
LayerCount: 2
Fore
SplineSet
224 -149 m 0x88
 209 -134 202 -120 202 -104 c 0
 202 -93 206 -80 214 -65 c 0
 220 -52 269 34 323 127 c 0
 377 219 420 297 420 301 c 0
 420 304 372 389 314 491 c 0
 255 592 204 685 204 696 c 0
 204 719 214 752 233 762 c 0
 241 766 252 770 263 770 c 0
 280 770 299 763 309 754 c 0
 317 746 363 672 411 589 c 0
 472 483 497 444 504 444 c 0
 504 444 505 445 505 445 c 0
 509 449 548 516 593 593 c 0
 637 670 681 740 690 750 c 0
 702 762 718 770 733 770 c 0
 766 770 798 744 798 707 c 0
 798 688 778 648 696 505 c 0
 639 407 590 322 585 315 c 0
 584 313 583 311 583 308 c 0
 583 293 603 256 687 111 c 0
 770 -33 798 -82 798 -112 c 0
 798 -124 793 -133 785 -143 c 0
 772 -160 754 -169 735 -169 c 0xa8
 719 -169 702 -162 689 -148 c 0x48
 680 -140 636 -67 589 14 c 0
 543 95 503 162 501 162 c 0
 499 162 459 96 413 16 c 0
 367 -64 323 -137 314 -146 c 0
 303 -159 290 -166 272 -169 c 0
 266 -170 262 -169 258 -169 c 0
 245 -169 239 -164 224 -149 c 0x88
EndSplineSet
EndChar

StartChar: braceleft
Encoding: 123 123 91
Width: 1000
VWidth: 0
Flags: W
VStem: 363 90<138.622 437.885>
LayerCount: 2
Fore
SplineSet
559 783 m 0
 566 792 577 796 589 796 c 0
 599 796 610 793 619 785 c 0
 631 775 637 761 637 748 c 0
 637 741 635 734 631 728 c 0
 583 665 540 600 509 530 c 0
 492 493 479 456 469 417 c 0
 460 381 453 344 453 306 c 0
 453 269 454 231 461 195 c 0
 468 156 480 118 495 81 c 0
 512 41 533 3 557 -34 c 0
 578 -66 601 -96 625 -126 c 0
 630 -132 633 -140 633 -148 c 0
 633 -160 627 -174 616 -184 c 0
 606 -192 595 -196 584 -196 c 0
 573 -196 563 -192 556 -184 c 0
 530 -152 504 -119 481 -84 c 0
 454 -43 431 1 412 47 c 2
 394 89 381 133 372 178 c 0
 364 222 363 266 363 310 c 0
 363 354 371 397 382 439 c 2
 393 483 408 526 426 567 c 0
 462 645 508 717 559 783 c 0
EndSplineSet
Validated: 1
EndChar

StartChar: braceright
Encoding: 125 125 93
Width: 1000
VWidth: 0
Flags: W
VStem: 547 90<162.115 461.378>
LayerCount: 2
Fore
SplineSet
375 726 m 0
 370 732 367 740 367 748 c 0
 367 760 373 774 384 784 c 0
 394 792 405 796 416 796 c 0
 427 796 437 792 444 784 c 0
 470 752 496 719 519 684 c 0
 546 643 569 599 588 553 c 0
 606 511 619 467 628 422 c 0
 636 378 637 334 637 290 c 0
 637 246 629 203 618 161 c 0
 607 117 592 74 574 33 c 0
 538 -45 492 -117 441 -183 c 0
 434 -192 423 -196 411 -196 c 0
 401 -196 390 -193 381 -185 c 0
 369 -175 363 -161 363 -148 c 0
 363 -141 365 -134 369 -128 c 0
 417 -65 460 0 491 70 c 0
 508 107 521 144 531 183 c 0
 540 219 547 256 547 294 c 0
 547 331 546 369 539 405 c 0
 532 444 520 482 505 519 c 0
 488 559 467 597 443 634 c 0
 422 666 399 696 375 726 c 0
EndSplineSet
Validated: 1
EndChar

StartChar: guillemotleft
Encoding: 171 171 95
Width: 1000
VWidth: 0
Flags: W
HStem: 549 20G<536.5 544 696 703.5>
LayerCount: 2
Fore
SplineSet
540 569 m 0
 548 569 555 566 561 561 c 0
 566 555 569 548 569 540 c 0
 569 532 566 525 561 519 c 2
 341 300 l 1
 561 81 l 2
 566 75 569 68 569 60 c 0
 569 52 566 45 561 39 c 0
 555 34 548 31 540 31 c 0
 532 31 525 34 519 39 c 2
 279 279 l 2
 274 285 271 292 271 300 c 0
 271 308 274 315 279 321 c 0
 280 321 280 321 281 322 c 0
 519 561 l 2
 525 566 533 569 540 569 c 0
700 569 m 0
 707 569 715 566 721 561 c 0
 726 555 729 548 729 540 c 0
 729 532 726 525 721 519 c 2
 501 300 l 1
 721 81 l 2
 726 75 729 68 729 60 c 0
 729 52 726 45 721 39 c 0
 715 34 708 31 700 31 c 0
 692 31 685 34 679 39 c 2
 439 279 l 2
 434 285 431 292 431 300 c 0
 431 308 434 315 439 321 c 0
 440 321 440 321 440 322 c 0
 679 561 l 2
 685 566 692 569 700 569 c 0
EndSplineSet
Validated: 1
EndChar

StartChar: guillemotright
Encoding: 187 187 96
Width: 1000
VWidth: 0
Flags: W
HStem: 549 20G<296 304 456 464>
LayerCount: 2
Fore
SplineSet
460 31 m 0
 452 31 445 34 439 39 c 0
 434 45 431 52 431 60 c 0
 431 68 434 75 439 81 c 2
 659 300 l 1
 439 519 l 2
 434 525 431 532 431 540 c 0
 431 548 434 555 439 561 c 0
 445 566 452 569 460 569 c 0
 468 569 475 566 481 561 c 2
 721 321 l 2
 726 315 729 308 729 300 c 0
 729 292 726 285 721 279 c 0
 720 279 720 279 719 278 c 0
 481 39 l 2
 475 34 467 31 460 31 c 0
300 31 m 0
 293 31 285 34 279 39 c 0
 274 45 271 52 271 60 c 0
 271 68 274 75 279 81 c 2
 499 300 l 1
 279 519 l 2
 274 525 271 532 271 540 c 0
 271 548 274 555 279 561 c 0
 285 566 292 569 300 569 c 0
 308 569 315 566 321 561 c 2
 561 321 l 2
 566 315 569 308 569 300 c 0
 569 292 566 285 561 279 c 0
 560 279 560 279 560 278 c 0
 321 39 l 2
 315 34 308 31 300 31 c 0
EndSplineSet
Validated: 1
EndChar

StartChar: multiply
Encoding: 215 215 198
Width: 1000
VWidth: 0
Flags: W
HStem: -171 21G<324 342 660.5 675> 67 131<47.2774 264 399.12 602 736 928> 401 136<49.8747 261 399 599 736 947.825> 751 20G<329.5 341.5 658 671.5> 751 20G<329.5 341.5 658 671.5>
VStem: 264 135<-149.55 67 199.993 401 537 750.125> 602 132<-128 67 198 401 536 751.719>
LayerCount: 2
Fore
SplineSet
294 -158 m 0xf6
 271 -140 264 -110 264 -16 c 2
 264 67 l 1
 173 67 l 2
 72 67 53 72 36 105 c 0
 31 114 29 124 29 133 c 0
 29 151 37 169 53 182 c 0
 71 198 74 198 168 198 c 2
 261 198 l 1
 261 300 l 1
 261 401 l 1
 163 401 l 1
 71 401 64 408 50 422 c 0
 36 435 29 450 29 467 c 0
 29 474 31 481 33 489 c 0
 46 527 62 537 169 537 c 1
 264 537 l 1
 264 631 l 1
 264 738 273 754 311 767 c 0
 319 769 326 770 333 770 c 0
 350 770 365 765 378 751 c 0
 392 737 396 729 396 637 c 1
 396 535 l 1
 500 535 l 1
 602 535 l 1
 602 632 l 2
 602 726 602 729 618 747 c 0
 631 763 649 770 667 770 c 0
 676 770 686 769 695 764 c 0
 728 747 733 728 733 627 c 2
 733 536 l 1
 816 536 l 2
 862 536 909 533 922 529 c 0
 950 521 971 497 971 471 c 0
 971 445 950 412 932 408 c 0
 924 406 877 401 827 401 c 1
 736 401 l 1
 736 300 l 1
 736 198 l 1
 831 198 l 1
 928 198 l 1
 949 177 l 2
 964 162 971 147 971 132 c 0
 971 118 965 104 952 90 c 2
 934 70 l 1
 834 70 l 1
 734 70 l 1
 734 -34 l 1
 734 -134 l 1
 710 -152 l 2
 696 -165 682 -171 668 -171 c 0
 653 -171 638 -164 623 -149 c 2
 602 -128 l 1
 602 -31 l 1
 602 67 l 1
 500 67 l 1
 399 67 l 1
 399 -27 l 1
 399 -77 394 -124 392 -132 c 0
 388 -150 355 -171 329 -171 c 0
 319 -171 303 -165 294 -158 c 0xf6
599 300 m 1
 599 401 l 1
 499 401 l 1
 399 401 l 1
 399 308 l 1
 399 266 398 229 398 214 c 0
 398 210 398 207 398 206 c 0
 401 200 426 198 502 198 c 2
 602 198 l 1
 599 300 l 1
EndSplineSet
Validated: 1
EndChar

StartChar: divide
Encoding: 247 247 199
Width: 1000
VWidth: 0
Flags: W
HStem: -114 247<426.938 565.729> 240 129<72 785.255> 467 247<426.938 565.855>
VStem: 372 247<-57.2734 78.3613 523.98 659.801>
LayerCount: 2
Fore
SplineSet
453 -108 m 0
 408 -93 372 -38 372 10 c 0
 372 15 371 20 372 24 c 0
 381 79 414 115 466 129 c 0
 477 132 487 133 498 133 c 0
 565 133 619 77 619 10 c 0
 619 -2 618 -14 614 -26 c 0
 600 -81 550 -114 495 -114 c 0
 481 -114 467 -112 453 -108 c 0
53 256 m 1
 37 270 29 287 29 305 c 0
 29 315 31 324 36 333 c 0
 54 366 45 369 313 369 c 0
 366 369 431 369 509 369 c 1
 935 369 l 1
 953 348 l 2
 965 335 971 320 971 305 c 0
 971 296 969 286 964 275 c 0
 948 240 958 240 497 240 c 2
 72 240 l 1
 53 256 l 1
453 474 m 0
 408 488 372 543 372 592 c 0
 372 597 371 601 372 606 c 0
 381 660 414 696 466 710 c 0
 477 713 488 714 499 714 c 0
 565 714 619 659 619 591 c 0
 619 580 618 567 614 555 c 0
 600 502 550 467 495 467 c 0
 481 467 467 469 453 474 c 0
EndSplineSet
Validated: 1
EndChar

